<?xml version="1.0" encoding="UTF-8" ?>
<!DOCTYPE svg PUBLIC "-//W3C//DTD SVG 1.1//EN" "http://www.w3.org/Graphics/SVG/1.1/DTD/svg11.dtd">
<svg width="200pt" height="174pt" viewBox="0 0 200 174" version="1.1" xmlns="http://www.w3.org/2000/svg">
<path fill="#ffffff" d=" M 0.00 0.00 L 200.00 0.00 L 200.00 174.00 L 0.00 174.00 L 0.00 0.00 Z" />
<path fill="#3b9801" d=" M 101.04 0.97 C 102.13 1.59 102.50 2.91 103.16 3.91 C 106.72 10.67 110.34 17.40 113.99 24.11 C 129.17 27.13 143.23 35.62 152.51 48.07 C 164.95 44.88 177.09 40.63 189.46 37.17 C 183.17 51.90 176.66 66.52 170.34 81.24 C 169.25 83.67 168.30 86.17 166.93 88.46 C 167.40 84.53 168.83 80.82 169.96 77.05 C 172.96 67.32 175.95 57.58 178.91 47.83 C 164.72 51.91 150.63 56.33 136.47 60.51 C 143.18 61.91 150.02 62.55 156.79 63.57 C 142.93 77.45 129.09 91.35 115.16 105.16 C 112.07 108.12 109.34 111.51 105.67 113.80 C 105.31 89.95 105.57 66.09 105.54 42.23 C 111.13 46.14 116.41 50.49 122.09 54.26 C 115.36 41.38 108.52 28.54 101.43 15.85 C 100.59 16.64 99.96 17.60 99.42 18.60 C 93.06 30.68 86.51 42.66 80.08 54.71 C 85.71 50.55 91.29 46.33 96.88 42.12 C 96.92 65.96 97.00 89.81 96.83 113.64 C 79.57 96.99 62.67 79.92 45.83 62.84 C 52.57 61.77 59.38 61.21 66.07 59.84 C 51.87 55.62 37.74 51.15 23.50 47.04 C 27.78 61.10 32.09 75.14 36.42 89.19 C 37.82 82.52 38.47 75.74 39.55 69.02 C 54.55 83.98 69.75 98.75 84.53 113.93 C 66.16 115.59 47.10 119.60 32.09 130.94 C 34.67 125.25 38.88 120.52 43.75 116.68 C 40.21 109.57 37.85 101.88 37.07 93.97 C 36.82 89.97 34.65 86.50 33.15 82.89 C 26.46 67.42 19.57 52.03 13.00 36.51 C 25.40 40.17 37.75 43.96 50.12 47.71 C 59.64 35.52 73.56 27.14 88.67 24.02 C 92.80 16.34 96.69 8.53 101.04 0.97 Z" />
<path fill="#3b9801" d=" M 162.58 70.25 C 162.69 70.30 162.91 70.39 163.02 70.44 C 164.37 76.90 164.35 83.61 166.23 89.96 C 164.77 99.07 163.22 108.37 158.68 116.56 C 163.32 120.58 167.77 125.05 170.20 130.81 C 155.40 119.65 136.67 115.82 118.62 113.87 C 133.24 99.30 147.90 84.75 162.58 70.25 Z" />
<path fill="#3b9801" d=" M 11.38 132.84 C 17.87 132.72 24.35 133.30 30.84 133.19 C 29.70 142.16 28.53 151.13 27.41 160.10 C 26.99 163.47 25.92 166.91 23.50 169.39 C 18.77 174.18 10.62 174.40 4.99 171.13 C 1.22 168.89 0.66 164.26 1.03 160.29 C 5.32 159.43 9.59 158.47 13.86 157.51 C 13.05 149.28 12.17 141.06 11.38 132.84 Z" />
<path fill="#3b9801" d=" M 33.28 133.33 C 40.85 133.23 48.42 133.01 55.99 132.82 C 55.43 142.26 54.27 151.67 53.70 161.09 C 54.11 163.85 57.18 163.41 59.23 163.47 C 60.68 154.65 59.58 145.67 59.59 136.78 C 64.34 136.76 69.08 137.04 73.82 137.20 C 73.42 147.59 73.02 157.99 72.68 168.38 C 67.57 167.98 63.88 172.05 59.06 172.87 C 52.09 174.77 43.75 172.35 39.92 165.97 C 33.77 156.31 33.81 144.37 33.28 133.33 Z" />
<path fill="#3b9801" d=" M 76.12 133.24 C 90.75 133.35 105.36 132.93 119.98 132.87 C 119.59 139.49 118.62 146.05 117.97 152.65 C 114.95 152.43 111.92 152.18 108.90 152.01 C 108.24 159.06 107.45 166.10 106.73 173.14 C 101.07 174.06 95.44 172.59 89.76 172.72 C 89.18 165.91 88.56 159.11 88.02 152.30 C 84.53 152.58 81.04 153.00 77.55 153.35 C 77.02 146.65 76.54 139.94 76.12 133.24 Z" />
<path fill="#3b9801" d=" M 133.30 132.84 C 139.79 132.72 146.27 133.28 152.76 133.20 C 151.60 142.10 150.47 151.00 149.37 159.91 C 148.92 163.57 147.72 167.35 144.89 169.88 C 140.09 174.25 132.42 174.34 126.97 171.16 C 123.31 168.98 122.68 164.45 122.21 160.61 C 126.72 159.47 131.28 158.52 135.81 157.47 C 134.94 149.26 134.08 141.06 133.30 132.84 Z" />
<path fill="#3b9801" d=" M 177.36 132.91 C 184.76 146.13 192.34 159.28 199.32 172.73 C 191.65 172.76 183.99 172.99 176.32 172.88 C 175.08 169.82 173.82 166.77 172.55 163.73 C 170.90 166.71 169.68 169.91 167.94 172.84 C 163.82 174.16 159.46 173.37 155.26 172.98 C 162.56 159.58 170.05 146.30 177.36 132.91 Z" />
</svg>
